<svg width="46" height="46" viewBox="0 0 46 46" fill="none" xmlns="http://www.w3.org/2000/svg">
<path d="M12.6038 3.36102C12.6038 1.50478 11.099 0 9.24281 0H3.36102C1.50478 0 0 1.50478 0 3.36102V9.24281C0 11.099 1.50478 12.6038 3.36102 12.6038H9.24281C11.099 12.6038 12.6038 11.099 12.6038 9.24281V3.36102Z" fill="#5700C6"/>
<path d="M16.385 3.36102C16.385 1.50478 17.8898 0 19.746 0H25.6278C27.484 0 28.9888 1.50478 28.9888 3.36102V8.82268C28.9888 10.6789 30.4936 12.1837 32.3498 12.1837H42.0128C43.869 12.1837 45.3738 13.6885 45.3738 15.5447V25.6278C45.3738 27.484 43.869 28.9888 42.0128 28.9888H32.3498C30.4936 28.9888 28.9888 30.4936 28.9888 32.3498V42.0128C28.9888 43.869 27.484 45.3738 25.6278 45.3738H15.5447C13.6885 45.3738 12.1837 43.869 12.1837 42.0128V31.9297C12.1837 30.0735 13.6885 28.5687 15.5447 28.5687H25.2077C27.0639 28.5687 28.5687 27.0639 28.5687 25.2077V15.9649C28.5687 14.1086 27.0639 12.6038 25.2077 12.6038H19.746C17.8898 12.6038 16.385 11.099 16.385 9.24281V3.36102Z" fill="#5700C6"/>
</svg>
