<svg width="20" height="21" viewBox="0 0 20 21" fill="none" xmlns="http://www.w3.org/2000/svg">
<path d="M10 2.28345C12.6719 2.28345 12.9883 2.29517 14.0391 2.34204C15.0156 2.38501 15.543 2.54907 15.8945 2.68579C16.3594 2.86548 16.6953 3.08423 17.043 3.43189C17.3945 3.78345 17.6094 4.11548 17.7891 4.58032C17.9258 4.93189 18.0898 5.46313 18.1328 6.43579C18.1797 7.49048 18.1914 7.80689 18.1914 10.4749C18.1914 13.1467 18.1797 13.4631 18.1328 14.5139C18.0898 15.4905 17.9258 16.0178 17.7891 16.3694C17.6094 16.8342 17.3906 17.1702 17.043 17.5178C16.6914 17.8694 16.3594 18.0842 15.8945 18.2639C15.543 18.4006 15.0117 18.5647 14.0391 18.6077C12.9844 18.6545 12.668 18.6663 10 18.6663C7.32813 18.6663 7.01172 18.6545 5.96094 18.6077C4.98438 18.5647 4.45703 18.4006 4.10547 18.2639C3.64063 18.0842 3.30469 17.8655 2.95703 17.5178C2.60547 17.1663 2.39063 16.8342 2.21094 16.3694C2.07422 16.0178 1.91016 15.4866 1.86719 14.5139C1.82031 13.4592 1.80859 13.1428 1.80859 10.4749C1.80859 7.80298 1.82031 7.48657 1.86719 6.43579C1.91016 5.45923 2.07422 4.93189 2.21094 4.58032C2.39063 4.11548 2.60938 3.77954 2.95703 3.43189C3.30859 3.08032 3.64063 2.86548 4.10547 2.68579C4.45703 2.54907 4.98828 2.38501 5.96094 2.34204C7.01172 2.29517 7.32813 2.28345 10 2.28345ZM10 0.482666C7.28516 0.482666 6.94531 0.494385 5.87891 0.54126C4.81641 0.588135 4.08594 0.76001 3.45313 1.0061C2.79297 1.26392 2.23438 1.60376 1.67969 2.16235C1.12109 2.71704 0.78125 3.27564 0.523438 3.93189C0.277344 4.5686 0.105469 5.29517 0.0585938 6.35767C0.0117188 7.42798 0 7.76782 0 10.4827C0 13.1975 0.0117188 13.5374 0.0585938 14.6038C0.105469 15.6663 0.277344 16.3967 0.523438 17.0295C0.78125 17.6897 1.12109 18.2483 1.67969 18.803C2.23438 19.3577 2.79297 19.7014 3.44922 19.9553C4.08594 20.2014 4.8125 20.3733 5.875 20.4202C6.94141 20.467 7.28125 20.4788 9.99609 20.4788C12.7109 20.4788 13.0508 20.467 14.1172 20.4202C15.1797 20.3733 15.9102 20.2014 16.543 19.9553C17.1992 19.7014 17.7578 19.3577 18.3125 18.803C18.8672 18.2483 19.2109 17.6897 19.4648 17.0334C19.7109 16.3967 19.8828 15.6702 19.9297 14.6077C19.9766 13.5413 19.9883 13.2014 19.9883 10.4866C19.9883 7.77173 19.9766 7.43189 19.9297 6.36548C19.8828 5.30298 19.7109 4.57251 19.4648 3.9397C19.2188 3.27564 18.8789 2.71704 18.3203 2.16235C17.7656 1.60767 17.207 1.26392 16.5508 1.01001C15.9141 0.763916 15.1875 0.592041 14.125 0.545166C13.0547 0.494385 12.7148 0.482666 10 0.482666Z" fill="#5700C6"/>
<path d="M10 5.34595C7.16406 5.34595 4.86328 7.64673 4.86328 10.4827C4.86328 13.3186 7.16406 15.6194 10 15.6194C12.8359 15.6194 15.1367 13.3186 15.1367 10.4827C15.1367 7.64673 12.8359 5.34595 10 5.34595ZM10 13.8147C8.16016 13.8147 6.66797 12.3225 6.66797 10.4827C6.66797 8.64282 8.16016 7.15063 10 7.15063C11.8398 7.15063 13.332 8.64282 13.332 10.4827C13.332 12.3225 11.8398 13.8147 10 13.8147Z" fill="#5700C6"/>
<path d="M16.5391 5.14282C16.5391 5.80689 16 6.34204 15.3398 6.34204C14.6758 6.34204 14.1406 5.80298 14.1406 5.14282C14.1406 4.47876 14.6797 3.9436 15.3398 3.9436C16 3.9436 16.5391 4.48267 16.5391 5.14282Z" fill="#5700C6"/>
</svg>
