<svg width="20" height="21" viewBox="0 0 20 21" fill="none" xmlns="http://www.w3.org/2000/svg">
<path d="M18.5195 0.482666H1.47656C0.660156 0.482666 0 1.1272 0 1.92407V19.0374C0 19.8342 0.660156 20.4827 1.47656 20.4827H18.5195C19.3359 20.4827 20 19.8342 20 19.0413V1.92407C20 1.1272 19.3359 0.482666 18.5195 0.482666ZM5.93359 17.5256H2.96484V7.97876H5.93359V17.5256ZM4.44922 6.67798C3.49609 6.67798 2.72656 5.90845 2.72656 4.95923C2.72656 4.01001 3.49609 3.24048 4.44922 3.24048C5.39844 3.24048 6.16797 4.01001 6.16797 4.95923C6.16797 5.90454 5.39844 6.67798 4.44922 6.67798ZM17.043 17.5256H14.0781V12.885C14.0781 11.7795 14.0586 10.3538 12.5352 10.3538C10.9922 10.3538 10.7578 11.5608 10.7578 12.8069V17.5256H7.79688V7.97876H10.6406V9.28345H10.6797C11.0742 8.53345 12.043 7.74048 13.4844 7.74048C16.4883 7.74048 17.043 9.71704 17.043 12.2874V17.5256Z" fill="#5700C6"/>
</svg>
