<svg width="25" height="24" viewBox="0 0 25 24" fill="none" xmlns="http://www.w3.org/2000/svg">
<path fill-rule="evenodd" clip-rule="evenodd" d="M10.0999 4.80002C7.44894 4.80002 5.2999 6.94906 5.2999 9.60002C5.2999 12.251 7.44894 14.4 10.0999 14.4C12.7509 14.4 14.8999 12.251 14.8999 9.60002C14.8999 6.94906 12.7509 4.80002 10.0999 4.80002ZM2.8999 9.60002C2.8999 5.62357 6.12345 2.40002 10.0999 2.40002C14.0764 2.40002 17.2999 5.62357 17.2999 9.60002C17.2999 11.155 16.807 12.5949 15.9688 13.7719L21.7484 19.5515C22.2171 20.0201 22.2171 20.7799 21.7484 21.2486C21.2798 21.7172 20.52 21.7172 20.0514 21.2486L14.2717 15.4689C13.0948 16.3071 11.6549 16.8 10.0999 16.8C6.12345 16.8 2.8999 13.5765 2.8999 9.60002Z" fill="#101010"/>
</svg>
