<svg width="20" height="21" viewBox="0 0 20 21" fill="none" xmlns="http://www.w3.org/2000/svg">
<path d="M6.2918 18.6073C13.8371 18.6073 17.9652 12.3546 17.9652 6.93385C17.9652 6.75807 17.9613 6.57838 17.9535 6.4026C18.7566 5.82185 19.4496 5.10251 20 4.27838C19.2521 4.61113 18.458 4.82845 17.6449 4.92291C18.5011 4.40972 19.1421 3.60353 19.4492 2.65377C18.6438 3.1311 17.763 3.46781 16.8445 3.64948C16.2257 2.99193 15.4075 2.55656 14.5164 2.41068C13.6253 2.26479 12.711 2.41651 11.9148 2.84238C11.1186 3.26825 10.4848 3.94455 10.1115 4.76673C9.73825 5.5889 9.64619 6.51115 9.84961 7.39088C8.21874 7.30904 6.62328 6.88539 5.16665 6.14738C3.71002 5.40938 2.42474 4.3735 1.39414 3.1069C0.870333 4.01 0.710047 5.07867 0.945859 6.09571C1.18167 7.11275 1.79589 8.00184 2.66367 8.58229C2.01219 8.5616 1.37498 8.3862 0.804688 8.07057V8.12135C0.804104 9.06909 1.13175 9.98779 1.73192 10.7213C2.3321 11.4548 3.16777 11.9578 4.09687 12.1448C3.49338 12.3099 2.85999 12.334 2.2457 12.2151C2.50788 13.0302 3.01798 13.743 3.70481 14.2542C4.39164 14.7654 5.22093 15.0495 6.07695 15.0667C4.62369 16.2082 2.82848 16.8274 0.980469 16.8245C0.652739 16.824 0.325333 16.8039 0 16.7643C1.87738 17.9688 4.06128 18.6085 6.2918 18.6073Z" fill="#5700C6"/>
</svg>
